<svg xmlns="http://www.w3.org/2000/svg" viewBox="0 0 100 100" fill="none">
  <!-- Cute blood drop shape -->
  <path d="M50 10 
         C50 10, 30 35, 30 55
         C30 70, 38 85, 50 85
         C62 85, 70 70, 70 55
         C70 35, 50 10, 50 10 Z" 
        fill="#FF4444" 
        stroke="#CC0000" 
        stroke-width="2.5"/>
  
  <!-- Happy face -->
  <circle cx="42" cy="50" r="3.5" fill="#FFFFFF"/>
  <circle cx="58" cy="50" r="3.5" fill="#FFFFFF"/>
  
  <!-- Eye pupils -->
  <circle cx="42" cy="50" r="1.5" fill="#330000"/>
  <circle cx="58" cy="50" r="1.5" fill="#330000"/>
  
  <!-- Cute smile -->
  <path d="M40 60 Q50 67, 60 60" 
        stroke="#FFFFFF" 
        stroke-width="2.5" 
        fill="none" 
        stroke-linecap="round"/>
  
  <!-- Shine/highlight effect (upper left) -->
  <ellipse cx="40" cy="30" rx="10" ry="8" fill="white" opacity="0.5"/>
  <ellipse cx="38" cy="28" rx="5" ry="4" fill="white" opacity="0.7"/>
  
  <!-- Cute blush marks -->
  <ellipse cx="32" cy="55" rx="4" ry="3" fill="#FF0000" opacity="0.4"/>
  <ellipse cx="68" cy="55" rx="4" ry="3" fill="#FF0000" opacity="0.4"/>
  
  <!-- Small sparkle (top right) -->
  <g transform="translate(65, 25)">
    <line x1="0" y1="-4" x2="0" y2="4" stroke="white" stroke-width="1.5" opacity="0.8"/>
    <line x1="-4" y1="0" x2="4" y2="0" stroke="white" stroke-width="1.5" opacity="0.8"/>
  </g>
  
  <!-- Small sparkle (bottom left) -->
  <g transform="translate(35, 75)">
    <line x1="0" y1="-3" x2="0" y2="3" stroke="white" stroke-width="1.2" opacity="0.7"/>
    <line x1="-3" y1="0" x2="3" y2="0" stroke="white" stroke-width="1.2" opacity="0.7"/>
  </g>
</svg>
