<svg xmlns="http://www.w3.org/2000/svg" viewBox="0 0 100 100" fill="none">
  <!-- Liver shape - right lobe (larger) -->
  <path d="M30 25 C30 18, 35 12, 42 12 L65 12 C72 12, 78 18, 78 25 L78 60 C78 75, 70 85, 58 88 C50 90, 42 87, 38 80 L30 65 Z" 
        fill="#8B4513" 
        stroke="#5D2E0F" 
        stroke-width="2"/>
  
  <!-- Liver shape - left lobe (smaller) -->
  <path d="M30 25 C30 18, 25 15, 18 15 C12 15, 8 20, 8 27 L8 50 C8 60, 12 68, 20 72 C25 75, 30 73, 32 68 L30 50 Z" 
        fill="#A0522D" 
        stroke="#5D2E0F" 
        stroke-width="2"/>
  
  <!-- Gallbladder -->
  <ellipse cx="68" cy="70" rx="8" ry="12" fill="#6B8E23" stroke="#3A5A0F" stroke-width="1.5"/>
  
  <!-- Surface details -->
  <path d="M35 30 Q40 35, 45 30" stroke="#5D2E0F" stroke-width="1" fill="none" opacity="0.3"/>
  <path d="M50 35 Q55 40, 60 35" stroke="#5D2E0F" stroke-width="1" fill="none" opacity="0.3"/>
  <path d="M40 50 Q45 55, 50 50" stroke="#5D2E0F" stroke-width="1" fill="none" opacity="0.3"/>
</svg>
