<svg xmlns="http://www.w3.org/2000/svg" viewBox="0 0 100 100" fill="none">
  <!-- Cute stomach shape -->
  <path d="M35 20 C35 15, 40 10, 45 10 L55 10 C60 10, 65 15, 65 20 
         C70 22, 72 28, 72 35 
         C72 45, 68 55, 65 60
         C63 65, 58 68, 52 68
         L48 68 C42 68, 37 65, 35 60
         C32 55, 28 45, 28 35
         C28 28, 30 22, 35 20 Z" 
        fill="#FFB6C1" 
        stroke="#FF69B4" 
        stroke-width="2.5"/>
  
  <!-- Happy face -->
  <circle cx="42" cy="35" r="3" fill="#FF1493"/>
  <circle cx="58" cy="35" r="3" fill="#FF1493"/>
  
  <!-- Cute smile -->
  <path d="M40 45 Q50 50, 60 45" 
        stroke="#FF1493" 
        stroke-width="2.5" 
        fill="none" 
        stroke-linecap="round"/>
  
  <!-- Small intestine (simplified cute loops) -->
  <path d="M48 68 
         C48 72, 45 75, 42 76
         C38 77, 35 76, 33 73
         C31 70, 32 66, 35 65
         Q40 64, 42 66
         C44 68, 46 68, 48 68" 
        fill="#FFC0CB" 
        stroke="#FF69B4" 
        stroke-width="2"/>
  
  <path d="M52 68 
         C52 72, 55 75, 58 76
         C62 77, 65 76, 67 73
         C69 70, 68 66, 65 65
         Q60 64, 58 66
         C56 68, 54 68, 52 68" 
        fill="#FFC0CB" 
        stroke="#FF69B4" 
        stroke-width="2"/>
  
  <!-- Shine/highlight effect -->
  <ellipse cx="46" cy="25" rx="8" ry="6" fill="white" opacity="0.4"/>
  
  <!-- Cute blush marks -->
  <ellipse cx="32" cy="40" rx="4" ry="3" fill="#FF69B4" opacity="0.3"/>
  <ellipse cx="68" cy="40" rx="4" ry="3" fill="#FF69B4" opacity="0.3"/>
</svg>
